<?xml version="1.0" encoding="utf-8"?>
<!-- Generator: Adobe Illustrator 25.4.1, SVG Export Plug-In . SVG Version: 6.00 Build 0)  -->
<svg version="1.1" id="Layer_1" xmlns="http://www.w3.org/2000/svg" xmlns:xlink="http://www.w3.org/1999/xlink" x="0px" y="0px"
	 viewBox="0 0 256 256" style="enable-background:new 0 0 256 256;" xml:space="preserve">
<style type="text/css">
	.st0{fill:#59B202;}
	.st1{fill:#FFFFFF;}
	.st2{fill:#FFC864;}
</style>
<g>
	<g>
		<g>
			<path class="st0" d="M34.4,19.2c-16.36,0-29.65,13.28-29.65,29.65v131.82c0,16.4,13.29,29.65,29.65,29.65h131.11l23.94,20.16
				c9.85,8.74,18.42,9.96,18.42-6.44v-13.72h13.72c16.36,0,29.65-13.24,29.65-29.65V48.85c0-16.37-13.29-29.65-29.65-29.65H34.4
				L34.4,19.2z"/>
		</g>
	</g>
	<g>
		<g>
			<path class="st1" d="M118.52,63.64v45.85c0,10.11-2.34,18.03-7.03,23.74c-4.28,5.49-9.79,9.7-16.53,12.63
				c-6.75,2.94-13.79,4.4-21.13,4.4c-7.24,0-14.25-1.48-21.03-4.43c-6.78-2.95-12.31-7.15-16.58-12.61
				c-4.69-6.09-7.03-14.01-7.03-23.74V63.64c0-4.53,1.28-8.31,3.83-11.34c2.55-3.03,6.05-4.55,10.48-4.55c4.47,0,8,1.52,10.6,4.55
				c2.6,3.03,3.9,6.81,3.9,11.34v42.3c0,5.42,1.5,9.54,4.5,12.35c3.09,3.16,6.87,4.74,11.34,4.74c4.24,0,8.04-1.58,11.39-4.74
				c3-2.81,4.5-6.92,4.5-12.35v-42.3c0-4.53,1.28-8.31,3.85-11.34c2.57-3.03,6.12-4.55,10.65-4.55c4.43,0,7.93,1.51,10.48,4.52
				C117.25,55.29,118.52,59.08,118.52,63.64z"/>
			<path class="st1" d="M157.35,58.69c6.89-7.71,14.8-11.56,23.74-11.56c11.49,0,21.09,3.67,28.81,11.01
				c5.04,4.91,8.92,10.77,11.63,17.56c2.71,6.8,4.07,13.75,4.07,20.87c0,9.25-1.72,17.98-5.17,26.18
				c-3.45,8.2-8.57,14.84-15.36,19.91c-6.8,5.07-14.85,7.61-24.17,7.61c-7.72,0-15.23-2.81-22.54-8.42v30.96
				c0,4.59-1.28,8.42-3.85,11.49c-2.57,3.06-6.12,4.59-10.65,4.59c-4.37,0-7.85-1.56-10.43-4.67c-2.58-3.11-3.88-6.92-3.88-11.41
				V64.79c0-4.79,1.14-8.82,3.42-12.11c2.28-3.29,5.7-4.93,10.27-4.93c3.64,0,6.51,0.92,8.61,2.75
				C153.95,52.33,155.78,55.06,157.35,58.69z"/>
		</g>
	</g>
	<g>
		<g>
			<path class="st2" d="M200.74,92.19c-0.17-0.52-0.68-0.85-1.53-0.98l-14.26-2.07l-6.39-12.93c-0.4-0.78-0.86-1.16-1.39-1.16
				c-0.55,0-1.01,0.39-1.39,1.16l-6.39,12.93l-14.26,2.07c-0.85,0.13-1.36,0.46-1.53,0.98c-0.17,0.52,0.05,1.08,0.65,1.69
				l10.34,10.06l-2.44,14.21c-0.09,0.63-0.04,1.11,0.17,1.46c0.21,0.35,0.53,0.53,0.97,0.53c0.32,0,0.7-0.11,1.14-0.34l12.76-6.71
				l12.76,6.71c0.44,0.23,0.81,0.34,1.14,0.34c0.44,0,0.76-0.18,0.97-0.53c0.21-0.35,0.26-0.84,0.17-1.46l-2.44-14.21l10.31-10.06
				C200.69,93.27,200.92,92.71,200.74,92.19L200.74,92.19z M187.22,101.32"/>
		</g>
	</g>
</g>
</svg>
